<svg xmlns="http://www.w3.org/2000/svg" width="39" height="42"><path d="M29.386 13.694a6.109 6.109 0 0 1-6.102-6.1c0-3.365 2.738-6.102 6.102-6.102 3.363 0 6.1 2.737 6.1 6.101s-2.737 6.101-6.1 6.101z" clip-rule="evenodd" fill-rule="evenodd"/><path d="M29.386 1.985a5.608 5.608 0 1 1 0 11.216 5.608 5.608 0 0 1 0-11.216m0-.986a6.601 6.601 0 0 0-6.594 6.593 6.601 6.601 0 0 0 6.594 6.594 6.601 6.601 0 0 0 6.594-6.594A6.601 6.601 0 0 0 29.386 1z" fill="#fff"/><path d="M9.615 13.694a6.108 6.108 0 0 1-6.101-6.1 6.109 6.109 0 0 1 6.1-6.103c3.365 0 6.102 2.737 6.102 6.101a6.109 6.109 0 0 1-6.101 6.102z" clip-rule="evenodd" fill-rule="evenodd"/><path d="M9.615 1.985a5.608 5.608 0 1 1 0 11.212 5.608 5.608 0 0 1 0-11.212m0-.986A6.601 6.601 0 0 0 3.02 7.592a6.601 6.601 0 0 0 6.594 6.594 6.601 6.601 0 0 0 6.594-6.594A6.601 6.601 0 0 0 9.615 1z" fill="#fff"/><path d="M1.198 21.715c0-10.108 8.194-18.302 18.302-18.302 10.108 0 18.304 8.194 18.304 18.302z" clip-rule="evenodd" fill="#fff" fill-rule="evenodd"/><path d="M19.501 40.51C9.137 40.51.705 32.08.705 21.715v-.494h37.59v.494c0 10.364-8.43 18.795-18.794 18.795z" clip-rule="evenodd" fill-rule="evenodd"/><path d="M37.804 21.715c0 10.108-8.195 18.303-18.303 18.303-10.109 0-18.303-8.195-18.303-18.303h36.606m.984-.987H.212v.986a19.163 19.163 0 0 0 5.65 13.639A19.163 19.163 0 0 0 19.5 41c5.152 0 9.995-2.006 13.639-5.648a19.156 19.156 0 0 0 5.648-13.638z" fill="#fff"/><ellipse transform="rotate(-45.009)" cx="9.201" cy="28.048" rx="3.482" ry="4.767"/><circle cx="24.415" cy="11.659" r=".986" fill="#fff"/><ellipse transform="rotate(-134.999)" cx="-18.373" cy="-.469" rx="3.482" ry="4.767"/><circle cx="14.586" cy="11.659" r=".986" fill="#fff"/><ellipse cx="19.5" cy="17.46" rx="2.033" ry="1.047" clip-rule="evenodd" fill-rule="evenodd"/><path d="M23.6 18.024c-1.849 3.37-6.35 3.37-8.2 0-.058-.12-.17-.195-.256-.158-.088.036-.113.177-.051.306 1.967 3.624 6.849 3.624 8.816 0 .061-.13.036-.27-.052-.306-.087-.037-.2.038-.256.158z"/><path d="M23.6 18.024l-.054-.03c-.914 1.667-2.48 2.495-4.046 2.495-1.566 0-3.131-.83-4.047-2.495l-.054.03.056-.026a.385.385 0 0 0-.11-.142.252.252 0 0 0-.155-.061.185.185 0 0 0-.166.104.291.291 0 0 0-.028.13c0 .054.013.113.04.169v.003c.994 1.83 2.728 2.75 4.461 2.75s3.47-.918 4.463-2.75l.001-.002.001-.001a.415.415 0 0 0 .04-.17.29.29 0 0 0-.03-.13.183.183 0 0 0-.164-.103.246.246 0 0 0-.154.06.415.415 0 0 0-.111.143l.058.026-.055-.03.055.03.056.026a.292.292 0 0 1 .076-.099.13.13 0 0 1 .077-.033l.024.004c.012.005.021.015.03.032a.16.16 0 0 1 .016.073.292.292 0 0 1-.027.118l.056.026-.055-.029c-.973 1.793-2.664 2.685-4.355 2.686-1.69 0-3.38-.894-4.352-2.686l-.054.029.056-.026a.279.279 0 0 1-.028-.118.16.16 0 0 1 .015-.073.068.068 0 0 1 .032-.032l.024-.004c.02 0 .05.01.078.033a.283.283 0 0 1 .076.1h.001v.002c.936 1.703 2.545 2.56 4.155 2.559 1.61 0 3.22-.855 4.154-2.559v-.002l.002-.002z"/><path d="M19.254 16.6h.493v4.14h-.493z"/><path d="M1.198 23.84h36.605v1.231H1.198z" fill="#fff"/></svg>