<svg xmlns="http://www.w3.org/2000/svg" width="49.251" height="51.08" viewBox="0 0 49.251 51.08"><g stroke="#fff" stroke-width="1.409"><path d="M37.294 16.177c-4.31 0-7.82-3.507-7.82-7.818s3.51-7.817 7.82-7.817c4.31 0 7.817 3.506 7.817 7.817 0 4.31-3.508 7.818-7.817 7.818zM11.958 16.177c-4.31 0-7.817-3.507-7.817-7.818S7.647.54 11.958.54c4.31 0 7.818 3.507 7.818 7.818 0 4.31-3.507 7.819-7.818 7.819z" clip-rule="evenodd" fill-rule="evenodd" stroke-width="1.07991396"/><path d="M1.172 26.456c0-12.953 10.5-23.454 23.453-23.454s23.456 10.5 23.456 23.453z" clip-rule="evenodd" fill="#fff" fill-rule="evenodd" stroke-width="1.07991396"/><path d="M24.627 50.54C11.345 50.54.54 39.736.54 26.456v-.634h48.17v.634c0 13.28-10.803 24.084-24.083 24.084z" clip-rule="evenodd" fill-rule="evenodd" stroke-width="1.07991396"/><g stroke="none" transform="matrix(.76644 0 0 .76644 -13.697 -12.783)"><ellipse ry="7.97" rx="5.821" cy="69.724" cx="17.154" transform="rotate(-45.009)"/><circle r="1.648" cy="34.383" cx="58.217" fill="#fff"/><ellipse ry="7.97" rx="5.823" cy=".989" cx="-53.548" transform="rotate(-134.999)"/><circle r="1.648" cy="34.383" cx="41.785" fill="#fff"/><ellipse ry="1.751" rx="3.399" cy="44.081" cx="50" clip-rule="evenodd" fill-rule="evenodd"/><path d="M42.794 44.64a.31.31 0 0 0-.277.175.487.487 0 0 0-.047.216c0 .092.02.19.066.284v.003l.002.002c1.66 3.06 4.56 4.598 7.457 4.598 2.898 0 5.8-1.535 7.464-4.598v-.002l.002-.003a.693.693 0 0 0 .066-.284.484.484 0 0 0-.048-.216.306.306 0 0 0-.276-.174.411.411 0 0 0-.258.101.693.693 0 0 0-.186.238c-1.527 2.781-4.141 4.166-6.76 4.166-2.617 0-5.232-1.385-6.762-4.166a.644.644 0 0 0-.185-.238.421.421 0 0 0-.258-.101z"/><path d="M49.589 42.643h.824v6.922h-.824z"/></g><path d="M1.172 29.178h46.906v1.578H1.172z" fill="#fff" stroke-width="1.07991396"/></g></svg>