<svg xmlns="http://www.w3.org/2000/svg" width="293.459" height="429.734" viewBox="0 0 293.459 429.734"><g stroke="#fff" stroke-width="6"><path d="M170.424 310.834a7441.534 7441.534 0 0 0 45.299 75.607c15.25 25.117 7.777 37.592-22.424 37.424-30.199-.168-60.4-.168-90.599 0-30.199.168-37.673-12.307-22.424-37.424a7478.493 7478.493 0 0 0 45.3-75.607c14.949-25.283 29.899-25.283 44.848 0z"/><circle class="toilet-box" r="23.091" cy="23.224" cx="148" clip-rule="evenodd" fill-rule="evenodd"/><path class="toilet-box" d="M29.288 215.746c-13.794 0-25.018-11.223-25.018-25.018V43.84c0-13.795 11.223-25.018 25.018-25.018h237.425c13.793 0 25.016 11.223 25.016 25.018v146.888c0 13.795-11.223 25.018-25.016 25.018z" clip-rule="evenodd" fill-rule="evenodd"/><path d="M223.596 154.405c-25.725 0-46.654-20.928-46.654-46.653 0-25.725 20.93-46.653 46.654-46.653 25.723 0 46.652 20.929 46.652 46.653 0 25.725-20.93 46.653-46.652 46.653zM72.405 154.405c-25.725 0-46.654-20.929-46.654-46.653 0-25.725 20.929-46.653 46.654-46.653 25.724 0 46.653 20.929 46.653 46.653s-20.929 46.653-46.653 46.653z" clip-rule="evenodd" fill-rule="evenodd"/><path d="M8.041 215.746c0-77.297 62.662-139.96 139.958-139.96 77.298 0 139.96 62.663 139.96 139.96z" clip-rule="evenodd" fill="#fff" fill-rule="evenodd"/><path d="M148.002 359.477C68.749 359.477 4.271 295 4.271 215.746v-3.77h287.458v3.77c0 79.254-64.475 143.731-143.727 143.731z" clip-rule="evenodd" fill-rule="evenodd"/><ellipse ry="36.461" rx="26.625" cy="151.577" cx="200.309" transform="rotate(-45.001 200.314 151.582)" class="eye" stroke="none"/><circle r="7.54" cy="138.85" cx="185.577" fill="#fff" stroke="none"/><ellipse ry="36.461" rx="26.625" cy="151.577" cx="95.692" transform="rotate(-134.999 95.691 151.578)" class="eye" stroke="none"/><circle r="7.54" cy="138.85" cx="110.423" fill="#fff" stroke="none"/><ellipse ry="8.011" rx="15.55" cy="183.212" cx="148" clip-rule="evenodd" fill-rule="evenodd" stroke="none"/><path d="M146.116 176.632h3.769v31.661h-3.769z" stroke="none"/><path style="isolation:auto;mix-blend-mode:normal;solid-color:#000;solid-opacity:1" d="M8.041 235.412h279.92" color="#000" overflow="visible" stroke-width="12" paint-order="markers stroke fill"/><path style="isolation:auto;mix-blend-mode:normal;solid-color:#000;solid-opacity:1" d="M180.387 187.63a33.236 26.163 0 0 1-32.466 20.205 33.236 26.163 0 0 1-32.307-20.363" class="mouth" color="#000" overflow="visible" fill="none" stroke="#000" stroke-width="3.313" stroke-linecap="round" paint-order="stroke fill markers"/></g></svg>