<svg xmlns="http://www.w3.org/2000/svg" width="293.459" height="429.734" viewBox="0 0 293.459 429.734"><g stroke="#fff" stroke-width="6"><path d="M170.424 314.834a7441.534 7441.534 0 0 0 45.299 75.607c15.25 25.117 7.777 37.592-22.424 37.424-30.199-.168-60.4-.168-90.599 0-30.199.168-37.673-12.307-22.424-37.424a7478.493 7478.493 0 0 0 45.3-75.607c14.949-25.283 29.899-25.283 44.848 0z"/><circle class="toilet-box" r="23.091" cy="27.224" cx="148" clip-rule="evenodd" fill-rule="evenodd"/><path class="toilet-box" d="M29.288 219.746c-13.794 0-25.018-11.223-25.018-25.018V47.84c0-13.795 11.223-25.018 25.018-25.018h237.425c13.793 0 25.016 11.223 25.016 25.018v146.888c0 13.795-11.223 25.018-25.016 25.018z" clip-rule="evenodd" fill-rule="evenodd"/><g stroke-width="1.409"><path d="M222.324 156.36c-25.724 0-46.66-20.926-46.66-46.646 0-25.724 20.936-46.646 46.655-46.646 25.715 0 46.642 20.922 46.642 46.646 0 25.72-20.927 46.646-46.642 46.646zM71.149 156.36c-25.724 0-46.647-20.926-46.647-46.646 0-25.724 20.923-46.656 46.647-46.656 25.72 0 46.646 20.927 46.646 46.647S96.868 156.36 71.149 156.36z" clip-rule="evenodd" fill-rule="evenodd" stroke-width="6.443596530000001"/><path d="M6.79 217.691c0-77.286 62.653-139.943 139.94-139.943 77.286 0 139.952 62.652 139.952 139.939z" clip-rule="evenodd" fill="#fff" fill-rule="evenodd" stroke-width="6.443596530000001"/><path d="M146.739 361.399c-79.253 0-143.721-64.468-143.721-143.708v-3.777H290.44v3.777c0 79.24-64.463 143.708-143.702 143.708z" clip-rule="evenodd" fill-rule="evenodd" stroke-width="6.443596530000001"/><g stroke="none" transform="matrix(4.57317 0 0 4.57317 -81.93 -16.437)"><ellipse ry="7.97" rx="5.821" cy="69.724" cx="17.154" transform="rotate(-45.009)"/><circle r="1.648" cy="34.383" cx="58.217" fill="#fff"/><ellipse ry="7.97" rx="5.823" cy=".989" cx="-53.548" transform="rotate(-134.999)"/><circle r="1.648" cy="34.383" cx="41.785" fill="#fff"/><ellipse ry="1.751" rx="3.399" cy="44.081" cx="50" clip-rule="evenodd" fill-rule="evenodd"/><path d="M42.794 44.64a.31.31 0 0 0-.277.175.487.487 0 0 0-.047.216c0 .092.02.19.066.284v.003l.002.002c1.66 3.06 4.56 4.598 7.457 4.598 2.898 0 5.8-1.535 7.464-4.598v-.002l.002-.003a.693.693 0 0 0 .066-.284.484.484 0 0 0-.048-.216.306.306 0 0 0-.276-.174.411.411 0 0 0-.258.101.693.693 0 0 0-.186.238c-1.527 2.781-4.141 4.166-6.76 4.166-2.617 0-5.232-1.385-6.762-4.166a.644.644 0 0 0-.185-.238.421.421 0 0 0-.258-.101z"/><path d="M49.589 42.643h.824v6.922h-.824z"/></g><path d="M6.79 233.935H286.67v9.416H6.79z" fill="#fff" stroke-width="6.443596530000001"/></g></g></svg>