<?xml version="1.0" encoding="UTF-8" standalone="no"?>
<svg
   xmlns:dc="http://purl.org/dc/elements/1.1/"
   xmlns:cc="http://creativecommons.org/ns#"
   xmlns:rdf="http://www.w3.org/1999/02/22-rdf-syntax-ns#"
   xmlns:svg="http://www.w3.org/2000/svg"
   xmlns="http://www.w3.org/2000/svg"
   xmlns:sodipodi="http://sodipodi.sourceforge.net/DTD/sodipodi-0.dtd"
   xmlns:inkscape="http://www.inkscape.org/namespaces/inkscape"
   width="100"
   height="100"
   version="1.1"
   id="svg36"
   sodipodi:docname="icon.svg"
   inkscape:version="0.92.4 (5da689c313, 2019-01-14)">
  <metadata
     id="metadata42">
    <rdf:RDF>
      <cc:Work
         rdf:about="">
        <dc:format>image/svg+xml</dc:format>
        <dc:type
           rdf:resource="http://purl.org/dc/dcmitype/StillImage" />
        <dc:title></dc:title>
        <cc:license
           rdf:resource="http://creativecommons.org/licenses/by-nc-sa/4.0/" />
        <dc:creator>
          <cc:Agent>
            <dc:title>Tomasz Zienkowicz</dc:title>
          </cc:Agent>
        </dc:creator>
      </cc:Work>
      <cc:License
         rdf:about="http://creativecommons.org/licenses/by-nc-sa/4.0/">
        <cc:permits
           rdf:resource="http://creativecommons.org/ns#Reproduction" />
        <cc:permits
           rdf:resource="http://creativecommons.org/ns#Distribution" />
        <cc:requires
           rdf:resource="http://creativecommons.org/ns#Notice" />
        <cc:requires
           rdf:resource="http://creativecommons.org/ns#Attribution" />
        <cc:prohibits
           rdf:resource="http://creativecommons.org/ns#CommercialUse" />
        <cc:permits
           rdf:resource="http://creativecommons.org/ns#DerivativeWorks" />
        <cc:requires
           rdf:resource="http://creativecommons.org/ns#ShareAlike" />
      </cc:License>
    </rdf:RDF>
  </metadata>
  <defs
     id="defs40" />
  <sodipodi:namedview
     pagecolor="#ffffff"
     bordercolor="#666666"
     borderopacity="1"
     objecttolerance="10"
     gridtolerance="10"
     guidetolerance="10"
     inkscape:pageopacity="0"
     inkscape:pageshadow="2"
     inkscape:window-width="1920"
     inkscape:window-height="1044"
     id="namedview38"
     showgrid="false"
     inkscape:pagecheckerboard="true"
     inkscape:zoom="32"
     inkscape:cx="49.175005"
     inkscape:cy="57.569993"
     inkscape:window-x="0"
     inkscape:window-y="0"
     inkscape:window-maximized="1"
     inkscape:current-layer="g34" />
  <rect
     style="color:#000000;clip-rule:nonzero;display:inline;overflow:visible;visibility:visible;opacity:1;isolation:auto;mix-blend-mode:normal;color-interpolation:sRGB;color-interpolation-filters:linearRGB;solid-color:#000000;solid-opacity:1;fill:#ff00ff;fill-opacity:1;fill-rule:nonzero;stroke:none;stroke-width:19.37603188;stroke-linecap:round;stroke-linejoin:miter;stroke-miterlimit:0;stroke-dasharray:none;stroke-dashoffset:0;stroke-opacity:1;paint-order:markers stroke fill;color-rendering:auto;image-rendering:auto;shape-rendering:auto;text-rendering:auto;enable-background:accumulate"
     id="rect831"
     width="100"
     height="100"
     x="0"
     y="-1.9073486e-06" />
  <g
     transform="matrix(1.4191958,0,0,1.4191958,-20.959005,-20.959175)"
     id="g34"
     style="stroke:#ffffff;stroke-width:1.40924882;stroke-miterlimit:4;stroke-dasharray:none">
    <path
       d="m 66.53,37.785 c -5.625,0 -10.203,-4.576 -10.203,-10.2 0,-5.625 4.578,-10.2 10.202,-10.2 5.623,0 10.199,4.575 10.199,10.2 0,5.624 -4.576,10.2 -10.199,10.2 z"
       id="path2"
       inkscape:connector-curvature="0"
       style="clip-rule:evenodd;fill-rule:evenodd;stroke:#ffffff;stroke-width:1.40924882;stroke-miterlimit:4;stroke-dasharray:none" />
    <path
       d="m 33.473,37.785 c -5.625,0 -10.2,-4.576 -10.2,-10.2 0,-5.625 4.575,-10.202 10.2,-10.202 5.624,0 10.2,4.576 10.2,10.2 0,5.624 -4.576,10.202 -10.2,10.202 z"
       id="path6"
       inkscape:connector-curvature="0"
       style="clip-rule:evenodd;fill-rule:evenodd;stroke:#ffffff;stroke-width:1.40924882;stroke-miterlimit:4;stroke-dasharray:none" />
    <path
       d="m 19.4,51.196 c 0,-16.9 13.7,-30.601 30.6,-30.601 16.9,0 30.603,13.7 30.603,30.6 z"
       id="path10"
       inkscape:connector-curvature="0"
       style="clip-rule:evenodd;fill:#ffffff;fill-rule:evenodd;stroke:#ffffff;stroke-width:1.40924882;stroke-miterlimit:4;stroke-dasharray:none" />
    <path
       d="M 50.002,82.62 C 32.672,82.62 18.575,68.523 18.575,51.196 V 50.37 h 62.85 v 0.826 c 0,17.327 -14.096,31.424 -31.423,31.424 z"
       id="path12"
       inkscape:connector-curvature="0"
       style="clip-rule:evenodd;fill-rule:evenodd;stroke:#ffffff;stroke-width:1.40924882;stroke-miterlimit:4;stroke-dasharray:none" />
    <g
       id="g837"
       style="stroke:none">
      <ellipse
         style="stroke:none;stroke-width:1.40924882;stroke-miterlimit:4;stroke-dasharray:none"
         id="ellipse16"
         transform="rotate(-45.009)"
         cx="17.153999"
         cy="69.723999"
         rx="5.8210001"
         ry="7.9699998" />
      <circle
         style="fill:#ffffff;stroke:none;stroke-width:1.40924882;stroke-miterlimit:4;stroke-dasharray:none"
         id="circle18"
         cx="58.216999"
         cy="34.382999"
         r="1.648" />
      <ellipse
         style="stroke:none;stroke-width:1.40924882;stroke-miterlimit:4;stroke-dasharray:none"
         id="ellipse20"
         transform="rotate(-134.999)"
         cx="-53.548"
         cy="0.98900002"
         rx="5.823"
         ry="7.9699998" />
      <circle
         style="fill:#ffffff;stroke:none;stroke-width:1.40924882;stroke-miterlimit:4;stroke-dasharray:none"
         id="circle22"
         cx="41.785"
         cy="34.382999"
         r="1.648" />
      <ellipse
         style="clip-rule:evenodd;fill-rule:evenodd;stroke:none;stroke-width:1.40924882;stroke-miterlimit:4;stroke-dasharray:none"
         id="ellipse24"
         cx="50"
         cy="44.081001"
         rx="3.3989999"
         ry="1.751" />
      <path
         style="stroke:none;stroke-width:2;stroke-miterlimit:4;stroke-dasharray:none"
         d="M 39.773438 42.394531 A 0.4399507 0.4399507 0 0 0 39.380859 42.642578 A 0.69114835 0.69114835 0 0 0 39.314453 42.949219 C 39.314453 43.079785 39.34292 43.218158 39.408203 43.351562 L 39.408203 43.355469 L 39.410156 43.359375 C 41.766021 47.702114 45.88273 49.884766 49.994141 49.884766 C 54.10697 49.884766 58.225815 47.706372 60.585938 43.359375 L 60.585938 43.355469 L 60.589844 43.351562 A 0.98350269 0.98350269 0 0 0 60.683594 42.949219 A 0.68689077 0.68689077 0 0 0 60.615234 42.642578 A 0.43427391 0.43427391 0 0 0 60.222656 42.394531 A 0.58328947 0.58328947 0 0 0 59.857422 42.539062 A 0.98350269 0.98350269 0 0 0 59.59375 42.876953 C 57.425967 46.823655 53.71559 48.789062 50 48.789062 C 46.285554 48.789062 42.574308 46.822826 40.402344 42.876953 A 0.9139621 0.9139621 0 0 0 40.140625 42.539062 A 0.59748143 0.59748143 0 0 0 39.773438 42.394531 z "
         transform="matrix(0.70462441,0,0,0.70462441,14.768226,14.768346)"
         id="path26" />
      <path
         style="stroke:none;stroke-width:1.40924882;stroke-miterlimit:4;stroke-dasharray:none"
         inkscape:connector-curvature="0"
         id="path30"
         d="m 49.589,42.643 h 0.824 v 6.922 h -0.824 z" />
    </g>
    <path
       d="m 19.4,54.748 h 61.2 v 2.059 H 19.4 Z"
       id="path32"
       inkscape:connector-curvature="0"
       style="fill:#ffffff;stroke:#ffffff;stroke-width:1.40924882;stroke-miterlimit:4;stroke-dasharray:none" />
  </g>
</svg>
