<?xml version="1.0" encoding="UTF-8" standalone="no"?>
<svg
   xmlns:dc="http://purl.org/dc/elements/1.1/"
   xmlns:cc="http://creativecommons.org/ns#"
   xmlns:rdf="http://www.w3.org/1999/02/22-rdf-syntax-ns#"
   xmlns:svg="http://www.w3.org/2000/svg"
   xmlns="http://www.w3.org/2000/svg"
   xmlns:sodipodi="http://sodipodi.sourceforge.net/DTD/sodipodi-0.dtd"
   xmlns:inkscape="http://www.inkscape.org/namespaces/inkscape"
   width="100"
   height="100"
   version="1.1"
   id="svg36"
   sodipodi:docname="icon.svg"
   inkscape:version="0.92.4 (5da689c313, 2019-01-14)">
  <metadata
     id="metadata42">
    <rdf:RDF>
      <cc:Work
         rdf:about="">
        <dc:format>image/svg+xml</dc:format>
        <dc:type
           rdf:resource="http://purl.org/dc/dcmitype/StillImage" />
        <dc:title></dc:title>
        <cc:license
           rdf:resource="http://creativecommons.org/licenses/by-nc-sa/4.0/" />
        <dc:creator>
          <cc:Agent>
            <dc:title>Tomasz Zienkowicz</dc:title>
          </cc:Agent>
        </dc:creator>
      </cc:Work>
      <cc:License
         rdf:about="http://creativecommons.org/licenses/by-nc-sa/4.0/">
        <cc:permits
           rdf:resource="http://creativecommons.org/ns#Reproduction" />
        <cc:permits
           rdf:resource="http://creativecommons.org/ns#Distribution" />
        <cc:requires
           rdf:resource="http://creativecommons.org/ns#Notice" />
        <cc:requires
           rdf:resource="http://creativecommons.org/ns#Attribution" />
        <cc:prohibits
           rdf:resource="http://creativecommons.org/ns#CommercialUse" />
        <cc:permits
           rdf:resource="http://creativecommons.org/ns#DerivativeWorks" />
        <cc:requires
           rdf:resource="http://creativecommons.org/ns#ShareAlike" />
      </cc:License>
    </rdf:RDF>
  </metadata>
  <defs
     id="defs40" />
  <sodipodi:namedview
     pagecolor="#ffffff"
     bordercolor="#666666"
     borderopacity="1"
     objecttolerance="10"
     gridtolerance="10"
     guidetolerance="10"
     inkscape:pageopacity="0"
     inkscape:pageshadow="2"
     inkscape:window-width="1600"
     inkscape:window-height="837"
     id="namedview38"
     showgrid="false"
     inkscape:pagecheckerboard="true"
     inkscape:zoom="6.28"
     inkscape:cx="50"
     inkscape:cy="50"
     inkscape:window-x="0"
     inkscape:window-y="27"
     inkscape:window-maximized="1"
     inkscape:current-layer="svg36" />
  <rect
     style="color:#000000;clip-rule:nonzero;display:inline;overflow:visible;visibility:visible;opacity:1;isolation:auto;mix-blend-mode:normal;color-interpolation:sRGB;color-interpolation-filters:linearRGB;solid-color:#000000;solid-opacity:1;fill:#ff00ff;fill-opacity:1;fill-rule:nonzero;stroke:none;stroke-width:19.37603188;stroke-linecap:round;stroke-linejoin:miter;stroke-miterlimit:0;stroke-dasharray:none;stroke-dashoffset:0;stroke-opacity:1;paint-order:markers stroke fill;color-rendering:auto;image-rendering:auto;shape-rendering:auto;text-rendering:auto;enable-background:accumulate"
     id="rect831"
     width="100"
     height="100"
     x="0"
     y="-1.9073486e-06" />
  <g
     transform="matrix(1.4191958,0,0,1.4191958,-20.959005,-20.959175)"
     id="g34">
    <path
       d="m 66.53,37.785 c -5.625,0 -10.203,-4.576 -10.203,-10.2 0,-5.625 4.578,-10.2 10.202,-10.2 5.623,0 10.199,4.575 10.199,10.2 0,5.624 -4.576,10.2 -10.199,10.2 z"
       id="path2"
       inkscape:connector-curvature="0"
       style="clip-rule:evenodd;fill-rule:evenodd" />
    <path
       d="m 66.53,18.208 a 9.3765001,9.3765001 0 1 1 -0.002,18.753 9.3765,9.3765 0 0 1 10e-4,-18.753 m 0,-1.65 A 11.037,11.037 0 0 0 55.503,27.583 11.037,11.037 0 0 0 66.53,38.607 11.037,11.037 0 0 0 77.554,27.583 11.037,11.037 0 0 0 66.53,16.559 Z"
       id="path4"
       inkscape:connector-curvature="0"
       style="fill:#ffffff" />
    <path
       d="m 33.473,37.785 c -5.625,0 -10.2,-4.576 -10.2,-10.2 0,-5.625 4.575,-10.202 10.2,-10.202 5.624,0 10.2,4.576 10.2,10.2 0,5.624 -4.576,10.202 -10.2,10.202 z"
       id="path6"
       inkscape:connector-curvature="0"
       style="clip-rule:evenodd;fill-rule:evenodd" />
    <path
       d="m 33.473,18.208 a 9.376,9.376 0 1 1 0,18.746 9.376,9.376 0 0 1 0,-18.746 m 0,-1.65 A 11.037,11.037 0 0 0 22.448,27.583 c 0,6.079 4.946,11.024 11.025,11.024 6.078,0 11.024,-4.945 11.024,-11.024 A 11.037,11.037 0 0 0 33.473,16.559 Z"
       id="path8"
       inkscape:connector-curvature="0"
       style="fill:#ffffff" />
    <path
       d="m 19.4,51.196 c 0,-16.9 13.7,-30.601 30.6,-30.601 16.9,0 30.603,13.7 30.603,30.6 z"
       id="path10"
       inkscape:connector-curvature="0"
       style="clip-rule:evenodd;fill:#ffffff;fill-rule:evenodd" />
    <path
       d="M 50.002,82.62 C 32.672,82.62 18.575,68.523 18.575,51.196 V 50.37 h 62.85 v 0.826 c 0,17.327 -14.096,31.424 -31.423,31.424 z"
       id="path12"
       inkscape:connector-curvature="0"
       style="clip-rule:evenodd;fill-rule:evenodd" />
    <path
       d="m 80.603,51.196 c 0,16.9 -13.701,30.6 -30.601,30.6 -16.902,0 -30.603,-13.7 -30.603,-30.6 h 61.204 m 1.646,-1.65 H 17.75 v 1.648 a 32.04,32.04 0 0 0 9.446,22.803 32.04,32.04 0 0 0 22.805,9.444 c 8.613,0 16.711,-3.354 22.803,-9.444 6.092,-6.09 9.444,-14.188 9.444,-22.801 z"
       id="path14"
       inkscape:connector-curvature="0"
       style="fill:#ffffff" />
    <ellipse
       ry="7.9699998"
       rx="5.8210001"
       cy="69.723999"
       cx="17.153999"
       transform="rotate(-45.009)"
       id="ellipse16" />
    <circle
       r="1.648"
       cy="34.382999"
       cx="58.216999"
       id="circle18"
       style="fill:#ffffff" />
    <ellipse
       ry="7.9699998"
       rx="5.823"
       cy="0.98900002"
       cx="-53.548"
       transform="rotate(-134.999)"
       id="ellipse20" />
    <circle
       r="1.648"
       cy="34.382999"
       cx="41.785"
       id="circle22"
       style="fill:#ffffff" />
    <ellipse
       ry="1.751"
       rx="3.3989999"
       cy="44.081001"
       cx="50"
       id="ellipse24"
       style="clip-rule:evenodd;fill-rule:evenodd" />
    <path
       d="m 56.856,45.025 c -3.093,5.634 -10.618,5.634 -13.71,0 -0.097,-0.202 -0.284,-0.326 -0.43,-0.265 -0.146,0.06 -0.188,0.295 -0.085,0.511 3.29,6.06 11.452,6.06 14.741,0 0.102,-0.216 0.06,-0.451 -0.087,-0.51 -0.145,-0.062 -0.334,0.062 -0.429,0.264 z"
       id="path26"
       inkscape:connector-curvature="0" />
    <path
       d="m 56.856,45.025 -0.092,-0.05 C 55.237,47.76 52.62,49.146 50,49.146 c -2.619,0 -5.236,-1.387 -6.766,-4.171 l -0.09,0.05 0.093,-0.044 a 0.644,0.644 0 0 0 -0.185,-0.238 0.421,0.421 0 0 0 -0.258,-0.102 0.31,0.31 0 0 0 -0.277,0.174 0.487,0.487 0 0 0 -0.047,0.216 c 0,0.092 0.02,0.19 0.066,0.284 v 0.002 l 0.002,0.003 c 1.66,3.06 4.56,4.598 7.457,4.598 2.898,0 5.8,-1.535 7.463,-4.598 l 0.001,-0.003 0.002,-0.002 a 0.693,0.693 0 0 0 0.066,-0.284 0.484,0.484 0 0 0 -0.048,-0.216 0.306,0.306 0 0 0 -0.276,-0.174 0.411,0.411 0 0 0 -0.258,0.102 0.693,0.693 0 0 0 -0.186,0.238 l 0.097,0.044 -0.092,-0.05 0.092,0.05 0.094,0.043 a 0.489,0.489 0 0 1 0.127,-0.166 0.216,0.216 0 0 1 0.129,-0.055 l 0.04,0.007 c 0.02,0.008 0.036,0.024 0.052,0.053 0.016,0.03 0.026,0.073 0.026,0.123 0,0.06 -0.015,0.129 -0.045,0.196 l 0.093,0.044 -0.092,-0.048 c -1.627,2.997 -4.455,4.489 -7.282,4.49 -2.826,0 -5.65,-1.495 -7.277,-4.49 l -0.09,0.048 0.094,-0.044 A 0.466,0.466 0 0 1 42.678,45.03 c 0,-0.05 0.01,-0.092 0.026,-0.123 a 0.113,0.113 0 0 1 0.053,-0.053 l 0.04,-0.007 c 0.034,0 0.082,0.016 0.13,0.055 a 0.473,0.473 0 0 1 0.128,0.166 l 0.002,0.002 v 0.003 c 1.564,2.848 4.255,4.28 6.946,4.278 2.691,10e-4 5.383,-1.429 6.945,-4.278 l 0.002,-0.003 10e-4,-0.003 z"
       id="path28"
       inkscape:connector-curvature="0" />
    <path
       d="m 49.589,42.643 h 0.824 v 6.922 h -0.824 z"
       id="path30"
       inkscape:connector-curvature="0" />
    <path
       d="m 19.4,54.748 h 61.2 v 2.059 H 19.4 Z"
       id="path32"
       inkscape:connector-curvature="0"
       style="fill:#ffffff" />
  </g>
</svg>
