<?xml version="1.0" encoding="UTF-8" standalone="no"?>
<svg
   xmlns:dc="http://purl.org/dc/elements/1.1/"
   xmlns:cc="http://creativecommons.org/ns#"
   xmlns:rdf="http://www.w3.org/1999/02/22-rdf-syntax-ns#"
   xmlns:svg="http://www.w3.org/2000/svg"
   xmlns="http://www.w3.org/2000/svg"
   xmlns:sodipodi="http://sodipodi.sourceforge.net/DTD/sodipodi-0.dtd"
   xmlns:inkscape="http://www.inkscape.org/namespaces/inkscape"
   width="39"
   height="42"
   version="1.1"
   id="svg34"
   sodipodi:docname="panda-head.svg"
   inkscape:version="0.92.4 (5da689c313, 2019-01-14)">
  <metadata
     id="metadata40">
    <rdf:RDF>
      <cc:Work
         rdf:about="">
        <dc:format>image/svg+xml</dc:format>
        <dc:type
           rdf:resource="http://purl.org/dc/dcmitype/StillImage" />
        <dc:title></dc:title>
      </cc:Work>
    </rdf:RDF>
  </metadata>
  <defs
     id="defs38" />
  <sodipodi:namedview
     pagecolor="#ffffff"
     bordercolor="#666666"
     borderopacity="1"
     objecttolerance="10"
     gridtolerance="10"
     guidetolerance="10"
     inkscape:pageopacity="0"
     inkscape:pageshadow="2"
     inkscape:window-width="1600"
     inkscape:window-height="837"
     id="namedview36"
     showgrid="false"
     inkscape:pagecheckerboard="true"
     inkscape:zoom="11.238095"
     inkscape:cx="22.573295"
     inkscape:cy="18.671292"
     inkscape:window-x="0"
     inkscape:window-y="27"
     inkscape:window-maximized="1"
     inkscape:current-layer="svg34" />
  <path
     d="m 29.386169,13.694098 c -3.363851,0 -6.101802,-2.736986 -6.101802,-6.1008373 0,-3.363851 2.737951,-6.1008376 6.101802,-6.1008376 3.362887,0 6.099874,2.7369866 6.099874,6.1008376 0,3.3638513 -2.736987,6.1008373 -6.099874,6.1008373 z"
     id="path2"
     inkscape:connector-curvature="0"
     style="clip-rule:evenodd;fill-rule:evenodd;stroke-width:0.96440685" />
  <path
     d="m 29.386169,1.9852349 a 5.6080258,5.6080258 0 1 1 -9.64e-4,11.2160511 5.6080258,5.6080258 0 0 1 9.64e-4,-11.2160511 m 0,-0.98658815 a 6.6013648,6.6013648 0 0 0 -6.594614,6.59364955 6.6013648,6.6013648 0 0 0 6.594614,6.5936497 6.6013648,6.6013648 0 0 0 6.59365,-6.5936497 6.6013648,6.6013648 0 0 0 -6.59365,-6.59364955 z"
     id="path4"
     inkscape:connector-curvature="0"
     style="fill:#ffffff;stroke-width:0.96440685" />
  <path
     d="m 9.6148648,13.694098 c -3.3638511,0 -6.1008377,-2.736986 -6.1008377,-6.1008373 0,-3.363851 2.7369866,-6.101802 6.1008377,-6.101802 3.3638512,0 6.1008372,2.7369866 6.1008372,6.1008376 0,3.3638507 -2.736986,6.1018017 -6.1008372,6.1018017 z"
     id="path6"
     inkscape:connector-curvature="0"
     style="clip-rule:evenodd;fill-rule:evenodd;stroke-width:0.96440685" />
  <path
     d="m 9.6148648,1.9852349 a 5.6080258,5.6080258 0 1 1 0,11.2121941 5.6080258,5.6080258 0 0 1 0,-11.2121941 m 0,-0.98658815 A 6.6013648,6.6013648 0 0 0 3.0212152,7.5922963 c 0,3.6358137 2.9578358,6.5936497 6.5936496,6.5936497 3.6358132,0 6.5936492,-2.957836 6.5936492,-6.5936497 A 6.6013648,6.6013648 0 0 0 9.6148648,0.99864675 Z"
     id="path8"
     inkscape:connector-curvature="0"
     style="fill:#ffffff;stroke-width:0.96440685" />
  <path
     d="m 1.1975218,21.71507 c 0,-10.107948 8.194565,-18.3025129 18.3025132,-18.3025129 10.107948,0 18.303477,8.1945649 18.303477,18.3025129 z"
     id="path10"
     inkscape:connector-curvature="0"
     style="clip-rule:evenodd;fill:#ffffff;fill-rule:evenodd;stroke-width:0.96440685" />
  <path
     d="m 19.500999,40.510395 c -10.36448,0 -18.79628911,-8.431809 -18.79628911,-18.795325 V 21.221294 H 38.29536 v 0.493776 c 0,10.363516 -8.430845,18.795325 -18.794361,18.795325 z"
     id="path12"
     inkscape:connector-curvature="0"
     style="clip-rule:evenodd;fill-rule:evenodd;stroke-width:0.96440685" />
  <path
     d="m 37.803512,21.71507 c 0,10.107948 -8.194565,18.302513 -18.302513,18.302513 -10.1089122,0 -18.3034772,-8.194565 -18.3034772,-18.302513 H 37.803512 m 0.98466,-0.986588 H 0.21189799 v 0.985624 A 19.162764,19.162764 0 0 0 5.8613933,35.352747 19.162764,19.162764 0 0 0 19.500999,41.001278 c 5.151861,0 9.995113,-2.005966 13.638642,-5.648531 3.643529,-3.642564 5.648531,-8.485816 5.648531,-13.637677 z"
     id="path14"
     inkscape:connector-curvature="0"
     style="fill:#ffffff;stroke-width:0.96440685" />
  <ellipse
     transform="rotate(-45.009)"
     cx="9.2011127"
     cy="28.047686"
     rx="3.4815085"
     ry="4.7670627"
     id="ellipse16"
     style="stroke-width:0.96440685" />
  <circle
     cx="24.414654"
     cy="11.6592"
     r="0.98562378"
     id="circle18"
     style="fill:#ffffff;stroke-width:0.96440685" />
  <ellipse
     transform="rotate(-134.999)"
     cx="-18.37295"
     cy="-0.46938875"
     rx="3.4824731"
     ry="4.7670627"
     id="ellipse20"
     style="stroke-width:0.96440685" />
  <circle
     cx="14.586382"
     cy="11.6592"
     r="0.98562378"
     id="circle22"
     style="fill:#ffffff;stroke-width:0.96440685" />
  <ellipse
     cx="19.500034"
     cy="17.460108"
     rx="2.0329697"
     ry="1.0473458"
     id="ellipse24"
     style="clip-rule:evenodd;fill-rule:evenodd;stroke-width:0.96440685" />
  <path
     d="m 23.600693,18.024285 c -1.849733,3.369638 -6.350619,3.369638 -8.200352,0 -0.05786,-0.120551 -0.169735,-0.19481 -0.256532,-0.158163 -0.08776,0.03568 -0.112836,0.176487 -0.05111,0.305717 1.96739,3.624241 6.849218,3.624241 8.816608,0 0.06076,-0.12923 0.03568,-0.270034 -0.05208,-0.305717 -0.0868,-0.03665 -0.199632,0.03761 -0.256532,0.158163 z"
     id="path26"
     inkscape:connector-curvature="0"
     style="stroke-width:0.96440685" />
  <path
     d="m 23.600693,18.024285 -0.05497,-0.0299 c -0.913293,1.666495 -2.47949,2.494921 -4.045686,2.494921 -1.566197,0 -3.131429,-0.82939 -4.046651,-2.494921 l -0.05401,0.0299 0.05593,-0.02604 c -0.027,-0.05883 -0.06558,-0.107049 -0.110906,-0.142732 -0.04533,-0.03568 -0.09741,-0.06076 -0.154305,-0.06076 a 0.18516611,0.18516611 0 0 0 -0.165878,0.104156 0.29125087,0.29125087 0 0 0 -0.02797,0.129231 c 0,0.05497 0.01254,0.1138 0.03954,0.169735 v 9.65e-4 l 9.65e-4,0.0019 c 0.993339,1.830444 2.727342,2.750488 4.460381,2.750488 1.73304,0 3.468972,-0.918115 4.463275,-2.750488 l 9.65e-4,-0.0019 9.64e-4,-9.65e-4 a 0.41469494,0.41469494 0 0 0 0.03954,-0.169735 0.28932205,0.28932205 0 0 0 -0.02893,-0.129231 0.1832373,0.1832373 0 0 0 -0.164914,-0.104156 0.24592375,0.24592375 0 0 0 -0.154305,0.06076 0.41469494,0.41469494 0 0 0 -0.110907,0.142732 l 0.05786,0.02604 -0.05497,-0.0299 0.05497,0.0299 0.05594,0.02604 a 0.29221527,0.29221527 0 0 1 0.07619,-0.09933 0.12923052,0.12923052 0 0 1 0.07715,-0.03279 l 0.02411,0.0039 c 0.01157,0.0048 0.02122,0.01447 0.03086,0.03183 0.0096,0.01832 0.01543,0.0434 0.01543,0.07329 0,0.03568 -0.0087,0.07715 -0.027,0.117658 l 0.05594,0.02604 -0.05497,-0.02893 c -0.973087,1.792832 -2.664656,2.684908 -4.355262,2.685873 -1.690605,0 -3.379281,-0.894005 -4.352368,-2.685873 l -0.05401,0.02893 0.05594,-0.02604 a 0.27871358,0.27871358 0 0 1 -0.02797,-0.117658 c 0,-0.0299 0.0058,-0.05497 0.01543,-0.07329 a 0.06750848,0.06750848 0 0 1 0.03182,-0.03183 l 0.02411,-0.0039 c 0.02025,0 0.04918,0.0096 0.07812,0.03279 0.02797,0.02218 0.0569,0.05786 0.07619,0.09933 l 9.65e-4,9.64e-4 v 0.0019 c 0.935474,1.703143 2.54507,2.559536 4.154665,2.558572 1.609595,9.64e-4 3.21919,-0.854465 4.1537,-2.558572 l 9.64e-4,-0.0019 9.65e-4,-0.0019 z"
     id="path28"
     inkscape:connector-curvature="0"
     style="stroke-width:0.96440685" />
  <path
     d="m 19.254111,16.599856 h 0.492812 v 4.140199 h -0.492812 z"
     id="path30"
     inkscape:connector-curvature="0"
     style="stroke-width:0.96440685" />
  <path
     d="M 1.1975218,23.839658 H 37.802548 v 1.231548 H 1.1975218 Z"
     id="path32"
     inkscape:connector-curvature="0"
     style="fill:#ffffff;stroke-width:0.96440685" />
</svg>
