<?xml version="1.0" encoding="UTF-8" standalone="no"?>
<svg
   xmlns:dc="http://purl.org/dc/elements/1.1/"
   xmlns:cc="http://creativecommons.org/ns#"
   xmlns:rdf="http://www.w3.org/1999/02/22-rdf-syntax-ns#"
   xmlns:svg="http://www.w3.org/2000/svg"
   xmlns="http://www.w3.org/2000/svg"
   xmlns:sodipodi="http://sodipodi.sourceforge.net/DTD/sodipodi-0.dtd"
   xmlns:inkscape="http://www.inkscape.org/namespaces/inkscape"
   width="293.45901"
   height="429.7337"
   viewBox="0 0 293.45901 429.7337"
   version="1.1"
   id="svg42"
   sodipodi:docname="toilet.svg"
   inkscape:version="0.92.4 (5da689c313, 2019-01-14)">
  <metadata
     id="metadata48">
    <rdf:RDF>
      <cc:Work
         rdf:about="">
        <dc:format>image/svg+xml</dc:format>
        <dc:type
           rdf:resource="http://purl.org/dc/dcmitype/StillImage" />
        <dc:title />
        <cc:license
           rdf:resource="http://creativecommons.org/licenses/by-nc-nd/4.0/" />
        <dc:creator>
          <cc:Agent>
            <dc:title>Tomasz Zienkowicz</dc:title>
          </cc:Agent>
        </dc:creator>
      </cc:Work>
      <cc:License
         rdf:about="http://creativecommons.org/licenses/by-nc-nd/4.0/">
        <cc:permits
           rdf:resource="http://creativecommons.org/ns#Reproduction" />
        <cc:permits
           rdf:resource="http://creativecommons.org/ns#Distribution" />
        <cc:requires
           rdf:resource="http://creativecommons.org/ns#Notice" />
        <cc:requires
           rdf:resource="http://creativecommons.org/ns#Attribution" />
        <cc:prohibits
           rdf:resource="http://creativecommons.org/ns#CommercialUse" />
      </cc:License>
    </rdf:RDF>
  </metadata>
  <defs
     id="defs46" />
  <sodipodi:namedview
     pagecolor="#ffffff"
     bordercolor="#666666"
     borderopacity="1"
     objecttolerance="10"
     gridtolerance="10"
     guidetolerance="10"
     inkscape:pageopacity="0"
     inkscape:pageshadow="2"
     inkscape:window-width="1600"
     inkscape:window-height="837"
     id="namedview44"
     showgrid="false"
     inkscape:pagecheckerboard="true"
     inkscape:zoom="8"
     inkscape:cx="142.31356"
     inkscape:cy="238.13235"
     inkscape:window-x="0"
     inkscape:window-y="27"
     inkscape:window-maximized="1"
     inkscape:current-layer="g843"
     fit-margin-top="0"
     fit-margin-left="0"
     fit-margin-right="0"
     fit-margin-bottom="0"
     inkscape:document-units="in" />
  <g
     id="g843"
     style="fill:#000000;stroke:#ffffff;stroke-width:6">
    <path
       style="stroke-width:6;stroke-miterlimit:4;stroke-dasharray:none"
       id="path2"
       d="m 170.424,310.834 a 7441.534,7441.534 0 0 0 45.299,75.607 c 15.25,25.117 7.777,37.592 -22.424,37.424 -30.199,-0.168 -60.4,-0.168 -90.599,0 -30.199,0.168 -37.673,-12.307 -22.424,-37.424 a 7478.493,7478.493 0 0 0 45.3,-75.607 c 14.949,-25.283 29.899,-25.283 44.848,0 z"
       inkscape:connector-curvature="0" />
    <circle
       style="clip-rule:evenodd;fill-rule:evenodd;stroke-width:6;stroke-miterlimit:4;stroke-dasharray:none"
       id="circle4"
       class="toilet-box"
       r="23.091"
       cy="23.224001"
       cx="148" />
    <path
       style="clip-rule:evenodd;fill-rule:evenodd;stroke-width:6;stroke-miterlimit:4;stroke-dasharray:none"
       id="path6"
       class="toilet-box"
       d="M 29.288,215.746 C 15.494,215.746 4.27,204.523 4.27,190.728 V 43.84 c 0,-13.795 11.223,-25.018 25.018,-25.018 h 237.425 c 13.793,0 25.016,11.223 25.016,25.018 v 146.888 c 0,13.795 -11.223,25.018 -25.016,25.018 z"
       inkscape:connector-curvature="0" />
    <path
       style="clip-rule:evenodd;fill-rule:evenodd;stroke-width:6;stroke-miterlimit:4;stroke-dasharray:none"
       id="path10"
       d="m 223.596,154.405 c -25.725,0 -46.654,-20.928 -46.654,-46.653 0,-25.725 20.93,-46.653 46.654,-46.653 25.723,0 46.652,20.929 46.652,46.653 0,25.725 -20.93,46.653 -46.652,46.653 z"
       inkscape:connector-curvature="0" />
    <path
       style="clip-rule:evenodd;fill-rule:evenodd;stroke-width:6;stroke-miterlimit:4;stroke-dasharray:none"
       id="path14"
       d="m 72.405,154.405 c -25.725,0 -46.654,-20.929 -46.654,-46.653 0,-25.725 20.929,-46.653 46.654,-46.653 25.724,0 46.653,20.929 46.653,46.653 0,25.724 -20.929,46.653 -46.653,46.653 z"
       inkscape:connector-curvature="0" />
    <path
       style="clip-rule:evenodd;fill:#ffffff;fill-rule:evenodd;stroke-width:6;stroke-miterlimit:4;stroke-dasharray:none"
       id="path18"
       d="m 8.041,215.746 c 0,-77.297 62.662,-139.96 139.958,-139.96 77.298,0 139.96,62.663 139.96,139.96 z"
       inkscape:connector-curvature="0" />
    <path
       style="clip-rule:evenodd;fill-rule:evenodd;stroke-width:6;stroke-miterlimit:4;stroke-dasharray:none"
       id="path20"
       d="M 148.002,359.477 C 68.749,359.477 4.271,295 4.271,215.746 v -3.77 h 287.458 v 3.77 c 0,79.254 -64.475,143.731 -143.727,143.731 z"
       inkscape:connector-curvature="0" />
    <ellipse
       style="stroke:none;stroke-width:6;stroke-miterlimit:4;stroke-dasharray:none"
       id="ellipse24"
       ry="36.460999"
       rx="26.625"
       cy="151.577"
       cx="200.30901"
       transform="rotate(-45.001,200.314,151.582)"
       class="eye" />
    <circle
       style="fill:#ffffff;stroke:none;stroke-width:6;stroke-miterlimit:4;stroke-dasharray:none"
       id="circle26"
       r="7.54"
       cy="138.85001"
       cx="185.577" />
    <ellipse
       style="stroke:none;stroke-width:6;stroke-miterlimit:4;stroke-dasharray:none"
       id="ellipse28"
       ry="36.460999"
       rx="26.625"
       cy="151.577"
       cx="95.692001"
       transform="rotate(-134.999,95.691,151.578)"
       class="eye" />
    <circle
       style="fill:#ffffff;stroke:none;stroke-width:6;stroke-miterlimit:4;stroke-dasharray:none"
       id="circle30"
       r="7.54"
       cy="138.85001"
       cx="110.423" />
    <ellipse
       style="clip-rule:evenodd;fill-rule:evenodd;stroke:none;stroke-width:6;stroke-miterlimit:4;stroke-dasharray:none"
       id="ellipse32"
       ry="8.0109997"
       rx="15.55"
       cy="183.21201"
       cx="148" />
    <path
       style="stroke:none;stroke-width:6;stroke-miterlimit:4;stroke-dasharray:none"
       id="path38"
       d="m 146.116,176.632 h 3.769 v 31.661 h -3.769 z"
       inkscape:connector-curvature="0" />
    <path
       style="color:#000000;clip-rule:nonzero;display:inline;overflow:visible;visibility:visible;opacity:1;isolation:auto;mix-blend-mode:normal;color-interpolation:sRGB;color-interpolation-filters:linearRGB;solid-color:#000000;solid-opacity:1;fill-opacity:1;fill-rule:nonzero;stroke:#ffffff;stroke-width:12;stroke-miterlimit:4;stroke-dasharray:none;paint-order:markers stroke fill;color-rendering:auto;image-rendering:auto;shape-rendering:auto;text-rendering:auto;enable-background:accumulate"
       d="m 8.041,235.412 h 279.92"
       id="path845"
       inkscape:connector-curvature="0" />
    <path
       style="color:#000000;clip-rule:nonzero;display:inline;overflow:visible;visibility:visible;opacity:1;isolation:auto;mix-blend-mode:normal;color-interpolation:sRGB;color-interpolation-filters:linearRGB;solid-color:#000000;solid-opacity:1;fill:none;fill-opacity:1;fill-rule:nonzero;stroke:#000000;stroke-width:3.31260824;stroke-linecap:round;stroke-linejoin:miter;stroke-miterlimit:4;stroke-dasharray:none;paint-order:stroke fill markers;color-rendering:auto;image-rendering:auto;shape-rendering:auto;text-rendering:auto;enable-background:accumulate"
       id="path877"
       sodipodi:type="arc"
       sodipodi:cx="148.02345"
       sodipodi:cy="181.67256"
       sodipodi:rx="33.236172"
       sodipodi:ry="26.162605"
       sodipodi:start="0.22969039"
       sodipodi:end="2.9180498"
       d="m 180.38674,187.62916 a 33.236172,26.162605 0 0 1 -32.46545,20.20588 33.236172,26.162605 0 0 1 -32.30703,-20.3626"
       sodipodi:open="true"
       class="mouth" />
  </g>
</svg>
