<svg xmlns="http://www.w3.org/2000/svg" width="128" height="128"><radialGradient id="a" cx="52.206" cy="37.552" gradientTransform="matrix(.60014 0 0 .62553 25.89 23.985)" gradientUnits="userSpaceOnUse" r="101.488"><stop offset=".458" stop-color="#eee"/><stop offset="1" stop-color="#bdbdbd"/></radialGradient><path d="M76.021 29.02l.976 36.688L45.65 82.003 42.6 101.532l34.048.106V90.003c0-5.28 4.015-9.226 8.169-11.897 5.749-3.697 9.477-10.009 10.015-17.027l2.64-32.065H76.02z" fill="url(#a)"/><path d="M68.183 58.833V28.99a2.51 2.51 0 0 1 2.502-2.502h.357a2.51 2.51 0 0 1 2.502 2.502v29.844a2.51 2.51 0 0 1-2.502 2.502h-.357a2.51 2.51 0 0 1-2.502-2.502z" fill="#b0bec5"/><path d="M71.042 27.738c.688 0 1.25.563 1.25 1.25v29.845c0 .688-.562 1.251-1.25 1.251h-.357a1.255 1.255 0 0 1-1.25-1.25V28.988c0-.688.562-1.251 1.25-1.251h.357m0-1.251h-.357a2.51 2.51 0 0 0-2.502 2.502v29.844a2.51 2.51 0 0 0 2.502 2.502h.357a2.51 2.51 0 0 0 2.502-2.502V28.99a2.51 2.51 0 0 0-2.502-2.502z" opacity=".2" fill="#424242"/><path d="M69.822 65.295H32.797a2.51 2.51 0 0 1-2.502-2.502v-.357a2.51 2.51 0 0 1 2.502-2.502h37.025a2.51 2.51 0 0 1 2.502 2.502v.357a2.51 2.51 0 0 1-2.502 2.502z" fill="#b0bec5"/><path d="M69.822 61.254c.65 0 1.176.525 1.176 1.176v.356c0 .651-.526 1.176-1.176 1.176H32.797c-.65 0-1.176-.525-1.176-1.176v-.356c0-.65.525-1.176 1.176-1.176h37.025m0-1.326H32.797a2.51 2.51 0 0 0-2.502 2.502v.356a2.51 2.51 0 0 0 2.502 2.503h37.025a2.51 2.51 0 0 0 2.502-2.503v-.356a2.51 2.51 0 0 0-2.502-2.502z" opacity=".2" fill="#424242"/><path d="M81.707 44.42l5.355.514c1.132.106 2.164-.394 2.164-1.051v-1.02c0-.657-1.032-1.157-2.164-1.05l-5.355.512c-.894.088-1.551.532-1.551 1.051 0 .513.657.957 1.551 1.045z" fill="#bdbdbd"/><path d="M87.368 42.42c.77 0 1.22.33 1.232.437v1.02c-.006.106-.456.437-1.232.437-.081 0-.162-.006-.25-.012l-5.355-.513c-.65-.063-.975-.338-.988-.425.013-.094.338-.37.988-.426l5.355-.513c.088 0 .169-.006.25-.006m0-.626c-.1 0-.206.007-.306.013l-5.355.513c-.894.088-1.551.532-1.551 1.05 0 .52.657.964 1.551 1.052l5.355.513c.106.012.206.012.306.012 1.007 0 1.858-.469 1.858-1.063v-1.02c0-.6-.85-1.07-1.858-1.07z" opacity=".2" fill="#424242"/><ellipse cx="89.364" cy="43.432" rx="3.021" ry="3.153" fill="#bdbdbd"/><path d="M89.364 40.905c1.32 0 2.395 1.132 2.395 2.527 0 1.395-1.076 2.528-2.395 2.528-1.32 0-2.396-1.133-2.396-2.528s1.07-2.527 2.396-2.527m0-.625c-1.67 0-3.022 1.413-3.022 3.152 0 1.74 1.351 3.153 3.022 3.153 1.67 0 3.02-1.414 3.02-3.153s-1.35-3.152-3.02-3.152z" opacity=".2" fill="#424242"/><radialGradient id="b" cx="37.5" cy="67" gradientTransform="matrix(.61978 0 0 .62553 24.714 23.985)" gradientUnits="userSpaceOnUse" r="61.057"><stop offset=".339" stop-color="#eee"/><stop offset=".901" stop-color="#bdbdbd"/></radialGradient><path d="M32.44 64.957c-1.589 0-2.752 1.67-2.396 3.41 2.54 12.272 12.855 21.455 25.19 21.455 12.336 0 22.645-9.183 25.19-21.456.364-1.739-.8-3.409-2.395-3.409z" fill="url(#b)"/><path d="M95.431 30.865L92.954 60.93c-.488 6.386-3.86 12.223-9.108 15.6-5.905 3.797-8.982 8.47-8.982 13.48v9.753l-30.026-.094 1.833-11.898a1.881 1.881 0 0 0-1.07-1.989c-6.95-3.265-12.079-9.92-13.711-17.796-.088-.413.043-.607.2-.795.112-.131.225-.044.35-.044h44.538c.507 0 .988-.362 1.345-.725.35-.363.544-.945.532-1.451l-.907-34.105h17.558m1.964-1.876zm0 0H76.022l.957 36.28H32.44c-1.589 0-2.752 1.515-2.396 3.254 1.777 8.57 7.344 15.557 14.75 19.035l-2.145 14.018 34.091.069V90.01c0-5.28 3.972-9.227 8.12-11.898 5.748-3.697 9.452-10.021 9.99-17.04z" opacity=".2" fill="#424242"/><path d="M97.996 36.602H74.895a1.255 1.255 0 0 1-1.251-1.251v-7.644c0-.689.563-1.252 1.251-1.252h23.1c.689 0 1.252.563 1.252 1.252v7.644c0 .694-.557 1.25-1.251 1.25z" fill="#eee"/><path d="M97.37 28.332v6.393H75.52v-6.393h21.85m.626-1.877H74.895c-.688 0-1.251.563-1.251 1.252v7.644c0 .688.563 1.25 1.251 1.25h23.1c.689 0 1.252-.562 1.252-1.25v-7.644a1.251 1.251 0 0 0-1.251-1.252z" opacity=".2" fill="#424242"/></svg>