<svg xmlns="http://www.w3.org/2000/svg" width="100" height="100"><path style="isolation:auto;mix-blend-mode:normal;solid-color:#000;solid-opacity:1" color="#000" overflow="visible" fill="none" paint-order="markers stroke fill" d="M0 0h100v100H0z"/><g stroke="#fff" stroke-width="1.409"><path d="M73.46 32.665c-7.983 0-14.48-6.494-14.48-14.476 0-7.983 6.497-14.475 14.479-14.475 7.98 0 14.474 6.492 14.474 14.475 0 7.982-6.494 14.476-14.474 14.476zM26.546 32.665c-7.983 0-14.476-6.494-14.476-14.476 0-7.983 6.493-14.478 14.476-14.478 7.981 0 14.476 6.494 14.476 14.476 0 7.981-6.495 14.478-14.476 14.478z" clip-rule="evenodd" fill-rule="evenodd" stroke-width="1.9996528"/><path d="M6.573 51.698c0-23.984 19.443-43.429 43.428-43.429 23.984 0 43.431 19.443 43.431 43.428z" clip-rule="evenodd" fill="#fff" fill-rule="evenodd" stroke-width="1.9996528"/><path d="M50.004 96.295c-24.595 0-44.601-20.007-44.601-44.597v-1.172h89.196v1.172c0 24.59-20.005 44.597-44.595 44.597z" clip-rule="evenodd" fill-rule="evenodd" stroke-width="1.9996528"/><g stroke="none" transform="matrix(1.4192 0 0 1.4192 -20.959 -20.96)"><ellipse transform="rotate(-45.009)" cx="17.154" cy="69.724" rx="5.821" ry="7.97"/><circle cx="58.217" cy="34.383" r="1.648" fill="#fff"/><ellipse transform="rotate(-134.999)" cx="-53.548" cy=".989" rx="5.823" ry="7.97"/><circle cx="41.785" cy="34.383" r="1.648" fill="#fff"/><ellipse cx="50" cy="44.081" rx="3.399" ry="1.751" clip-rule="evenodd" fill-rule="evenodd"/><path d="M42.794 44.64a.31.31 0 0 0-.277.175.487.487 0 0 0-.047.216c0 .092.02.19.066.284v.003l.002.002c1.66 3.06 4.56 4.598 7.457 4.598 2.898 0 5.8-1.535 7.464-4.598v-.002l.002-.003a.693.693 0 0 0 .066-.284.484.484 0 0 0-.048-.216.306.306 0 0 0-.276-.174.411.411 0 0 0-.258.101.693.693 0 0 0-.186.238c-1.527 2.781-4.141 4.166-6.76 4.166-2.617 0-5.232-1.385-6.762-4.166a.644.644 0 0 0-.185-.238.421.421 0 0 0-.258-.101z"/><path d="M49.589 42.643h.824v6.922h-.824z"/></g><path d="M6.573 56.739h86.855v2.922H6.573z" fill="#fff" stroke-width="1.9996528"/></g></svg>