<svg xmlns="http://www.w3.org/2000/svg" width="100" height="100"><path style="isolation:auto;mix-blend-mode:normal;solid-color:#000;solid-opacity:1" color="#000" overflow="visible" fill="#fff" paint-order="markers stroke fill" d="M0 0h100v100H0z"/><g stroke="#fff" stroke-width="1.409"><path d="M68.99 40.372c-6.083 0-11.033-4.949-11.033-11.03 0-6.083 4.95-11.03 11.032-11.03 6.08 0 11.03 4.947 11.03 11.03 0 6.081-4.95 11.03-11.03 11.03zM33.242 40.372c-6.082 0-11.03-4.949-11.03-11.03 0-6.083 4.948-11.033 11.03-11.033 6.082 0 11.03 4.949 11.03 11.03 0 6.082-4.948 11.033-11.03 11.033z" clip-rule="evenodd" fill-rule="evenodd" stroke-width="1.5236926"/><path d="M18.024 54.875c0-18.276 14.815-33.092 33.09-33.092 18.276 0 33.095 14.815 33.095 33.09z" clip-rule="evenodd" fill="#fff" fill-rule="evenodd" stroke-width="1.5236926"/><path d="M51.117 88.856c-18.74 0-33.985-15.244-33.985-33.981v-.894h67.965v.894c0 18.737-15.243 33.981-33.98 33.981z" clip-rule="evenodd" fill-rule="evenodd" stroke-width="1.5236926"/><g stroke="none" transform="matrix(1.0814 0 0 1.0814 -2.955 -.489)"><ellipse ry="7.97" rx="5.821" cy="69.724" cx="17.154" transform="rotate(-45.009)"/><circle r="1.648" cy="34.383" cx="58.217" fill="#fff"/><ellipse ry="7.97" rx="5.823" cy=".989" cx="-53.548" transform="rotate(-134.999)"/><circle r="1.648" cy="34.383" cx="41.785" fill="#fff"/><ellipse ry="1.751" rx="3.399" cy="44.081" cx="50" clip-rule="evenodd" fill-rule="evenodd"/><path d="M42.794 44.64a.31.31 0 0 0-.277.175.487.487 0 0 0-.047.216c0 .092.02.19.066.284v.003l.002.002c1.66 3.06 4.56 4.598 7.457 4.598 2.898 0 5.8-1.535 7.464-4.598v-.002l.002-.003a.693.693 0 0 0 .066-.284.484.484 0 0 0-.048-.216.306.306 0 0 0-.276-.174.411.411 0 0 0-.258.101.693.693 0 0 0-.186.238c-1.527 2.781-4.141 4.166-6.76 4.166-2.617 0-5.232-1.385-6.762-4.166a.644.644 0 0 0-.185-.238.421.421 0 0 0-.258-.101z"/><path d="M49.589 42.643h.824v6.922h-.824z"/></g><path d="M18.024 58.716h66.181v2.226H18.024z" fill="#fff" stroke-width="1.5236926"/></g></svg>