<svg xmlns="http://www.w3.org/2000/svg" width="100" height="100"><path style="isolation:auto;mix-blend-mode:normal;solid-color:#000;solid-opacity:1" color="#000" overflow="visible" fill="none" paint-order="markers stroke fill" d="M0 0h100v100H0z"/><g transform="matrix(1.4192 0 0 1.4192 -20.959 -20.96)"><path d="M66.53 37.785c-5.625 0-10.203-4.576-10.203-10.2 0-5.625 4.578-10.2 10.202-10.2 5.623 0 10.199 4.575 10.199 10.2 0 5.624-4.576 10.2-10.199 10.2z" clip-rule="evenodd" fill-rule="evenodd"/><path d="M66.53 18.208a9.377 9.377 0 1 1-.002 18.753 9.377 9.377 0 0 1 .001-18.753m0-1.65a11.037 11.037 0 0 0-11.026 11.025A11.037 11.037 0 0 0 66.53 38.607a11.037 11.037 0 0 0 11.024-11.024A11.037 11.037 0 0 0 66.53 16.559z" fill="#fff"/><path d="M33.473 37.785c-5.625 0-10.2-4.576-10.2-10.2 0-5.625 4.575-10.202 10.2-10.202 5.624 0 10.2 4.576 10.2 10.2s-4.576 10.202-10.2 10.202z" clip-rule="evenodd" fill-rule="evenodd"/><path d="M33.473 18.208a9.376 9.376 0 1 1 0 18.746 9.376 9.376 0 0 1 0-18.746m0-1.65a11.037 11.037 0 0 0-11.025 11.025c0 6.079 4.946 11.024 11.025 11.024 6.078 0 11.024-4.945 11.024-11.024a11.037 11.037 0 0 0-11.024-11.024z" fill="#fff"/><path d="M19.4 51.196c0-16.9 13.7-30.601 30.6-30.601 16.9 0 30.603 13.7 30.603 30.6z" clip-rule="evenodd" fill="#fff" fill-rule="evenodd"/><path d="M50.002 82.62c-17.33 0-31.427-14.097-31.427-31.424v-.826h62.85v.826c0 17.327-14.096 31.424-31.423 31.424z" clip-rule="evenodd" fill-rule="evenodd"/><path d="M80.603 51.196c0 16.9-13.701 30.6-30.601 30.6-16.902 0-30.603-13.7-30.603-30.6h61.204m1.646-1.65H17.75v1.648a32.04 32.04 0 0 0 9.446 22.803 32.04 32.04 0 0 0 22.805 9.444c8.613 0 16.711-3.354 22.803-9.444 6.092-6.09 9.444-14.188 9.444-22.801z" fill="#fff"/><ellipse ry="7.97" rx="5.821" cy="69.724" cx="17.154" transform="rotate(-45.009)"/><circle r="1.648" cy="34.383" cx="58.217" fill="#fff"/><ellipse ry="7.97" rx="5.823" cy=".989" cx="-53.548" transform="rotate(-134.999)"/><circle r="1.648" cy="34.383" cx="41.785" fill="#fff"/><ellipse ry="1.751" rx="3.399" cy="44.081" cx="50" clip-rule="evenodd" fill-rule="evenodd"/><path d="M56.856 45.025c-3.093 5.634-10.618 5.634-13.71 0-.097-.202-.284-.326-.43-.265-.146.06-.188.295-.085.511 3.29 6.06 11.452 6.06 14.741 0 .102-.216.06-.451-.087-.51-.145-.062-.334.062-.429.264z"/><path d="M56.856 45.025l-.092-.05C55.237 47.76 52.62 49.146 50 49.146c-2.619 0-5.236-1.387-6.766-4.171l-.09.05.093-.044a.644.644 0 0 0-.185-.238.421.421 0 0 0-.258-.102.31.31 0 0 0-.277.174.487.487 0 0 0-.047.216c0 .092.02.19.066.284v.002l.002.003c1.66 3.06 4.56 4.598 7.457 4.598 2.898 0 5.8-1.535 7.463-4.598l.001-.003.002-.002a.693.693 0 0 0 .066-.284.484.484 0 0 0-.048-.216.306.306 0 0 0-.276-.174.411.411 0 0 0-.258.102.693.693 0 0 0-.186.238l.097.044-.092-.05.092.05.094.043a.489.489 0 0 1 .127-.166.216.216 0 0 1 .129-.055l.04.007c.02.008.036.024.052.053.016.03.026.073.026.123 0 .06-.015.129-.045.196l.093.044-.092-.048c-1.627 2.997-4.455 4.489-7.282 4.49-2.826 0-5.65-1.495-7.277-4.49l-.09.048.094-.044a.466.466 0 0 1-.047-.196c0-.05.01-.092.026-.123a.113.113 0 0 1 .053-.053l.04-.007a.22.22 0 0 1 .13.055.473.473 0 0 1 .128.166l.002.002v.003c1.564 2.848 4.255 4.28 6.946 4.278 2.691.001 5.383-1.429 6.945-4.278l.002-.003.001-.003z"/><path d="M49.589 42.643h.824v6.922h-.824z"/><path d="M19.4 54.748h61.2v2.059H19.4z" fill="#fff"/></g></svg>